<?xml version="1.0" encoding="UTF-8" standalone="no"?><!-- Generator: Gravit.io --><svg xmlns="http://www.w3.org/2000/svg" xmlns:xlink="http://www.w3.org/1999/xlink" style="isolation:isolate" viewBox="0 0 48 48" width="48pt" height="48pt"><defs><clipPath id="_clipPath_PKKzvTcagNXw8qTuhtZgsagzwAUkviyU"><rect width="48" height="48"/></clipPath></defs><g clip-path="url(#_clipPath_PKKzvTcagNXw8qTuhtZgsagzwAUkviyU)"><clipPath id="_clipPath_Iq8Kf9JsfHJwOzYoXYB83wr0I2HJC7Cx"><rect x="0" y="0" width="48" height="48" transform="matrix(1,0,0,1,0,0)" fill="rgb(255,255,255)"/></clipPath><g clip-path="url(#_clipPath_Iq8Kf9JsfHJwOzYoXYB83wr0I2HJC7Cx)"><g><clipPath id="_clipPath_QZaPVAdWR1kp256sNa3EJVyuY2qvqiFC"><rect x="0" y="0" width="48" height="48" transform="matrix(1,0,0,1,0,0)" fill="rgb(255,255,255)"/></clipPath><g clip-path="url(#_clipPath_QZaPVAdWR1kp256sNa3EJVyuY2qvqiFC)"><g><g><g><radialGradient id="_rgradient_8" fx="0.5000018204656751" fy="0.5000417188151829" cx="0.5000018204656751" cy="0.5000417188151829" r="1" gradientTransform="matrix(41.198,0,0,4.494,3.371,41.948)" gradientUnits="userSpaceOnUse"><stop offset="0%" stop-opacity="0.2" style="stop-color:rgb(0,0,0)"/><stop offset="100%" stop-opacity="0" style="stop-color:rgb(0,0,0)"/></radialGradient><path d=" M 44.569 44.195 C 44.567 45.428 35.269 46.442 23.97 46.442 C 12.671 46.442 3.373 45.428 3.371 44.195 L 3.371 44.195 C 3.371 42.962 12.67 41.948 23.97 41.948 C 35.271 41.948 44.569 42.962 44.569 44.195 L 44.569 44.195 L 44.569 44.195 L 44.569 44.195 Z " fill="url(#_rgradient_8)"/><g style="opacity:0.4;"><g style="opacity:0.4;"><g style="opacity:0.4;"><g style="opacity:0.4;"><g opacity="0.4"><radialGradient id="_rgradient_9" fx="-0.001409145353342467" fy="0.5" cx="-0.001409145353342467" cy="0.5" r="1" gradientTransform="matrix(5.322,0,0,1.873,38.873,43.446)" gradientUnits="userSpaceOnUse"><stop offset="0%" stop-opacity="0.4" style="stop-color:rgb(24,24,24)"/><stop offset="100%" stop-opacity="0" style="stop-color:rgb(24,24,24)"/></radialGradient><rect x="38.873" y="43.446" width="5.322" height="1.873" transform="matrix(1,0,0,1,0,0)" fill="url(#_rgradient_9)"/></g></g></g></g><g style="opacity:0.4;"><g style="opacity:0.4;"><g style="opacity:0.4;"><g opacity="0.4"><radialGradient id="_rgradient_10" fx="1.001345733812444" fy="0.5" cx="1.001345733812444" cy="0.5" r="1" gradientTransform="matrix(5.322,0,0,1.873,3.745,43.446)" gradientUnits="userSpaceOnUse"><stop offset="0%" stop-opacity="0.4" style="stop-color:rgb(24,24,24)"/><stop offset="100%" stop-opacity="0" style="stop-color:rgb(24,24,24)"/></radialGradient><rect x="3.745" y="43.446" width="5.322" height="1.873" transform="matrix(1,0,0,1,0,0)" fill="url(#_rgradient_10)"/></g></g></g></g><g style="opacity:0.4;"><g style="opacity:0.4;"><g style="opacity:0.4;"><g opacity="0.4"><linearGradient id="_lgradient_2" x1="0.5377906391545042" y1="1.0040048057669182" x2="0.5377906391545046" y2="1.0039660545450133" gradientTransform="matrix(29.805,0,0,1.873,9.067,43.446)" gradientUnits="userSpaceOnUse"><stop offset="0%" stop-opacity="0" style="stop-color:rgb(24,24,24)"/><stop offset="50%" stop-opacity="0.4" style="stop-color:rgb(24,24,24)"/><stop offset="100%" stop-opacity="0" style="stop-color:rgb(24,24,24)"/></linearGradient><rect x="9.067" y="43.446" width="29.805" height="1.873" transform="matrix(1,0,0,1,0,0)" fill="url(#_lgradient_2)"/></g></g></g></g></g><radialGradient id="_rgradient_11" fx="0.4999970551569111" fy="-0.0028741668548094013" cx="0.4999970551569111" cy="-0.0028741668548094013" r="1" gradientTransform="matrix(38.202,0,0,38.202,4.869,5.993)" gradientUnits="userSpaceOnUse"><stop offset="0%" stop-opacity="1" style="stop-color:rgb(253,226,140)"/><stop offset="100%" stop-opacity="1" style="stop-color:rgb(241,190,96)"/></radialGradient><path d=" M 43.071 7.678 C 43.071 6.748 42.316 5.993 41.386 5.993 L 6.554 5.993 C 5.624 5.993 4.869 6.748 4.869 7.678 L 4.869 42.509 C 4.869 43.44 5.624 44.195 6.554 44.195 L 41.386 44.195 C 42.316 44.195 43.071 43.44 43.071 42.509 L 43.071 7.678 L 43.071 7.678 L 43.071 7.678 Z " fill-rule="evenodd" fill="url(#_rgradient_11)"/></g></g></g></g><g filter="url(#DFyLySa7M9ahWkzMHPTZ5wHCrzXidhhM)"><path d=" M 17.983 22.083 L 15.426 22.083 C 14.72 22.083 14.148 22.655 14.148 23.361 L 14.148 31.031 C 14.148 31.737 14.72 32.309 15.426 32.309 L 17.983 32.309 C 18.688 32.309 19.261 31.737 19.261 31.031 L 19.261 23.361 C 19.261 22.655 18.688 22.083 17.983 22.083 Z  M 33.599 26.102 C 33.599 25.733 33.48 25.392 33.28 25.113 C 33.631 24.803 33.852 24.35 33.852 23.844 C 33.852 22.91 33.09 22.244 32.16 22.152 C 31.574 22.093 30.201 21.949 30.201 21.949 L 26.931 21.763 L 27.752 18.822 C 27.858 18.278 27.908 17.724 27.878 17.171 C 27.833 16.301 27.615 15.691 26.612 15.691 C 25.988 15.691 25.778 16.095 25.592 16.656 C 25.301 17.529 24.901 18.362 24.495 19.188 L 22.574 21.266 C 22.218 21.65 21.796 21.975 21.313 22.178 C 20.79 22.398 20.54 22.976 20.54 23.654 L 20.54 30.738 C 20.54 31.606 21.243 32.309 22.111 32.309 L 29.485 32.309 C 30.129 32.309 30.771 32.217 31.384 32.018 C 31.656 31.93 31.904 31.826 32.037 31.714 C 32.436 31.449 32.701 30.996 32.701 30.48 C 32.701 30.23 32.638 29.995 32.529 29.789 C 32.954 29.481 33.232 28.981 33.232 28.416 C 33.232 28.057 33.12 27.724 32.929 27.45 C 33.336 27.141 33.599 26.652 33.599 26.102 L 33.599 26.102 Z " fill-rule="evenodd" fill="rgb(255,255,255)"/></g><defs><filter id="DFyLySa7M9ahWkzMHPTZ5wHCrzXidhhM" x="-200%" y="-200%" width="400%" height="400%" filterUnits="objectBoundingBox" color-interpolation-filters="sRGB"><feGaussianBlur xmlns="http://www.w3.org/2000/svg" in="SourceGraphic" stdDeviation="0.8587218125678057"/><feOffset xmlns="http://www.w3.org/2000/svg" dx="2" dy="2" result="pf_100_offsetBlur"/><feFlood xmlns="http://www.w3.org/2000/svg" flood-color="#000000" flood-opacity="0.05"/><feComposite xmlns="http://www.w3.org/2000/svg" in2="pf_100_offsetBlur" operator="in" result="pf_100_dropShadow"/><feBlend xmlns="http://www.w3.org/2000/svg" in="SourceGraphic" in2="pf_100_dropShadow" mode="normal"/></filter></defs></g></g></g></svg>