<?xml version="1.0" encoding="UTF-8" standalone="no"?><!-- Generator: Gravit.io --><svg xmlns="http://www.w3.org/2000/svg" xmlns:xlink="http://www.w3.org/1999/xlink" style="isolation:isolate" viewBox="0 0 48 48" width="48pt" height="48pt"><defs><clipPath id="_clipPath_UFCHZWj23uhpFtzU7EjDVt9clZIDS5lA"><rect width="48" height="48"/></clipPath></defs><g clip-path="url(#_clipPath_UFCHZWj23uhpFtzU7EjDVt9clZIDS5lA)"><clipPath id="_clipPath_XjIxvm88GOiiLRVIN7V5BeN7BX9ax67s"><rect x="0" y="0" width="48" height="48" transform="matrix(1,0,0,1,0,0)" fill="rgb(255,255,255)"/></clipPath><g clip-path="url(#_clipPath_XjIxvm88GOiiLRVIN7V5BeN7BX9ax67s)"><radialGradient id="_rgradient_8" fx="0.5000018204656751" fy="0.5000417188151829" cx="0.5000018204656751" cy="0.5000417188151829" r="1" gradientTransform="matrix(41.198,0,0,4.494,3.371,41.948)" gradientUnits="userSpaceOnUse"><stop offset="0%" stop-opacity="0.2" style="stop-color:rgb(0,0,0)"/><stop offset="100%" stop-opacity="0" style="stop-color:rgb(0,0,0)"/></radialGradient><path d=" M 44.569 44.195 C 44.567 45.428 35.269 46.442 23.97 46.442 C 12.671 46.442 3.373 45.428 3.371 44.195 L 3.371 44.195 C 3.371 42.962 12.67 41.948 23.97 41.948 C 35.271 41.948 44.569 42.962 44.569 44.195 L 44.569 44.195 L 44.569 44.195 L 44.569 44.195 L 44.569 44.195 Z " fill="url(#_rgradient_8)"/><g style="opacity:0.4;"><g style="opacity:0.4;"><g style="opacity:0.4;"><g style="opacity:0.4;"><g style="opacity:0.4;"><g opacity="0.4"><radialGradient id="_rgradient_9" fx="-0.001409145353342467" fy="0.5" cx="-0.001409145353342467" cy="0.5" r="1" gradientTransform="matrix(5.322,0,0,1.873,38.873,43.446)" gradientUnits="userSpaceOnUse"><stop offset="0%" stop-opacity="0.4" style="stop-color:rgb(24,24,24)"/><stop offset="100%" stop-opacity="0" style="stop-color:rgb(24,24,24)"/></radialGradient><rect x="38.873" y="43.446" width="5.322" height="1.873" transform="matrix(1,0,0,1,0,0)" fill="url(#_rgradient_9)"/></g></g></g></g></g><g style="opacity:0.4;"><g style="opacity:0.4;"><g style="opacity:0.4;"><g style="opacity:0.4;"><g opacity="0.4"><radialGradient id="_rgradient_10" fx="1.0013457338124445" fy="0.5" cx="1.0013457338124445" cy="0.5" r="1" gradientTransform="matrix(5.322,0,0,1.873,3.745,43.446)" gradientUnits="userSpaceOnUse"><stop offset="0%" stop-opacity="0.4" style="stop-color:rgb(24,24,24)"/><stop offset="100%" stop-opacity="0" style="stop-color:rgb(24,24,24)"/></radialGradient><rect x="3.745" y="43.446" width="5.322" height="1.873" transform="matrix(1,0,0,1,0,0)" fill="url(#_rgradient_10)"/></g></g></g></g></g><g style="opacity:0.4;"><g style="opacity:0.4;"><g style="opacity:0.4;"><g style="opacity:0.4;"><g opacity="0.4"><linearGradient id="_lgradient_2" x1="0.5377906391545042" y1="1.0040048057669182" x2="0.5377906391545046" y2="1.0040017819617508" gradientTransform="matrix(29.805,0,0,1.873,9.067,43.446)" gradientUnits="userSpaceOnUse"><stop offset="0%" stop-opacity="0" style="stop-color:rgb(24,24,24)"/><stop offset="50%" stop-opacity="0.4" style="stop-color:rgb(24,24,24)"/><stop offset="100%" stop-opacity="0" style="stop-color:rgb(24,24,24)"/></linearGradient><rect x="9.067" y="43.446" width="29.805" height="1.873" transform="matrix(1,0,0,1,0,0)" fill="url(#_lgradient_2)"/></g></g></g></g></g></g><radialGradient id="_rgradient_11" fx="0.4999970551569111" fy="-0.0028741668548094013" cx="0.4999970551569111" cy="-0.0028741668548094013" r="1" gradientTransform="matrix(38.202,0,0,38.202,4.869,5.993)" gradientUnits="userSpaceOnUse"><stop offset="0%" stop-opacity="1" style="stop-color:rgb(140,181,253)"/><stop offset="100%" stop-opacity="1" style="stop-color:rgb(106,96,241)"/></radialGradient><path d=" M 43.071 7.678 C 43.071 6.748 42.316 5.993 41.386 5.993 L 6.554 5.993 C 5.624 5.993 4.869 6.748 4.869 7.678 L 4.869 42.509 C 4.869 43.44 5.624 44.195 6.554 44.195 L 41.386 44.195 C 42.316 44.195 43.071 43.44 43.071 42.509 L 43.071 7.678 L 43.071 7.678 L 43.071 7.678 L 43.071 7.678 Z " fill-rule="evenodd" fill="url(#_rgradient_11)"/></g><path d=" M 29.467 28.646 C 30.235 29.855 30.597 30.497 30.597 31.167 C 30.597 32.489 29.615 33.131 28.292 33.131 C 27.708 33.131 27.332 33.13 26.38 32.635 C 26.38 32.635 25.764 32.07 24.321 32.128 C 22.864 32.071 22.247 32.642 22.247 32.642 C 21.295 33.136 20.932 33.131 20.35 33.131 C 19.026 33.131 18.043 32.491 18.043 31.167 C 18.043 30.498 18.406 29.856 19.174 28.646 C 19.174 28.646 20.625 26.236 21.883 25.103 C 22.792 24.284 24.116 24.287 24.116 24.287 L 24.525 24.287 L 24.525 24.287 C 24.525 24.287 25.908 24.284 26.76 25.103 C 27.978 26.277 29.467 28.646 29.467 28.646 Z  M 21.088 22.676 C 22.471 22.676 23.593 20.928 23.593 18.772 C 23.593 16.617 22.471 14.869 21.088 14.869 C 19.704 14.869 18.583 16.617 18.583 18.772 C 18.583 20.928 19.704 22.676 21.088 22.676 Z  M 18.687 26.456 C 19.707 25.985 19.939 24.316 19.206 22.728 C 18.473 21.139 17.052 20.233 16.032 20.703 C 15.012 21.174 14.78 22.843 15.513 24.432 C 16.246 26.02 17.667 26.926 18.687 26.456 Z  M 26.912 22.676 C 28.295 22.676 29.417 20.928 29.417 18.772 C 29.417 16.617 28.295 14.869 26.912 14.869 C 25.528 14.869 24.407 16.617 24.407 18.772 C 24.407 20.928 25.528 22.676 26.912 22.676 Z  M 31.968 20.703 C 30.947 20.232 29.527 21.138 28.794 22.727 C 28.06 24.316 28.293 25.985 29.313 26.456 C 30.333 26.927 31.754 26.02 32.487 24.432 C 33.22 22.843 32.988 21.174 31.968 20.703 Z " fill="rgb(255,255,255)"/></g></svg>