<?xml version="1.0" encoding="UTF-8" standalone="no"?><!-- Generator: Gravit.io --><svg xmlns="http://www.w3.org/2000/svg" xmlns:xlink="http://www.w3.org/1999/xlink" style="isolation:isolate" viewBox="0 0 24 24" width="24pt" height="24pt"><defs><clipPath id="_clipPath_muvCqSQMxLFSioTTqB7pZ2n4g5hstrSo"><rect width="24" height="24"/></clipPath></defs><g clip-path="url(#_clipPath_muvCqSQMxLFSioTTqB7pZ2n4g5hstrSo)"><clipPath id="_clipPath_Gj2MozwzTP1aRMRE9ohkoAIm1nF5gDes"><rect x="0" y="0" width="24" height="24" transform="matrix(1,0,0,1,0,0)" fill="rgb(255,255,255)"/></clipPath><g clip-path="url(#_clipPath_Gj2MozwzTP1aRMRE9ohkoAIm1nF5gDes)"><radialGradient id="_rgradient_16" fx="0.5000018204656751" fy="0.5000417188151829" cx="0.5000018204656751" cy="0.5000417188151829" r="1" gradientTransform="matrix(20.599,0,0,2.247,1.685,20.974)" gradientUnits="userSpaceOnUse"><stop offset="0%" stop-opacity="0.2" style="stop-color:rgb(0,0,0)"/><stop offset="100%" stop-opacity="0" style="stop-color:rgb(0,0,0)"/></radialGradient><path d=" M 22.285 22.098 C 22.284 22.714 17.635 23.221 11.985 23.221 C 6.335 23.221 1.686 22.714 1.685 22.098 L 1.685 22.097 C 1.685 21.481 6.335 20.974 11.985 20.974 C 17.635 20.974 22.285 21.481 22.285 22.097 L 22.285 22.098 L 22.285 22.098 L 22.285 22.098 L 22.285 22.098 Z " fill="url(#_rgradient_16)"/><g style="opacity:0.4;"><g style="opacity:0.4;"><g style="opacity:0.4;"><g style="opacity:0.4;"><g style="opacity:0.4;"><g opacity="0.4"><radialGradient id="_rgradient_17" fx="-0.001409145353342467" fy="0.5" cx="-0.001409145353342467" cy="0.5" r="1" gradientTransform="matrix(2.661,0,0,0.936,19.436,21.723)" gradientUnits="userSpaceOnUse"><stop offset="0%" stop-opacity="0.4" style="stop-color:rgb(24,24,24)"/><stop offset="100%" stop-opacity="0" style="stop-color:rgb(24,24,24)"/></radialGradient><rect x="19.436" y="21.723" width="2.661" height="0.936" transform="matrix(1,0,0,1,0,0)" fill="url(#_rgradient_17)"/></g></g></g></g></g><g style="opacity:0.4;"><g style="opacity:0.4;"><g style="opacity:0.4;"><g style="opacity:0.4;"><g opacity="0.4"><radialGradient id="_rgradient_18" fx="1.0013457338124445" fy="0.5" cx="1.0013457338124445" cy="0.5" r="1" gradientTransform="matrix(2.661,0,0,0.936,1.873,21.723)" gradientUnits="userSpaceOnUse"><stop offset="0%" stop-opacity="0.4" style="stop-color:rgb(24,24,24)"/><stop offset="100%" stop-opacity="0" style="stop-color:rgb(24,24,24)"/></radialGradient><rect x="1.873" y="21.723" width="2.661" height="0.936" transform="matrix(1,0,0,1,0,0)" fill="url(#_rgradient_18)"/></g></g></g></g></g><g style="opacity:0.4;"><g style="opacity:0.4;"><g style="opacity:0.4;"><g style="opacity:0.4;"><g opacity="0.4"><linearGradient id="_lgradient_4" x1="0.5377906391545042" y1="1.0040048057669182" x2="0.5377906391545046" y2="1.0040017819617508" gradientTransform="matrix(14.902,0,0,0.936,4.534,21.723)" gradientUnits="userSpaceOnUse"><stop offset="0%" stop-opacity="0" style="stop-color:rgb(24,24,24)"/><stop offset="50%" stop-opacity="0.4" style="stop-color:rgb(24,24,24)"/><stop offset="100%" stop-opacity="0" style="stop-color:rgb(24,24,24)"/></linearGradient><rect x="4.534" y="21.723" width="14.902" height="0.936" transform="matrix(1,0,0,1,0,0)" fill="url(#_lgradient_4)"/></g></g></g></g></g></g><radialGradient id="_rgradient_19" fx="0.4999970551569111" fy="-0.0028741668548094013" cx="0.4999970551569111" cy="-0.0028741668548094013" r="1" gradientTransform="matrix(19.101,0,0,19.101,2.435,2.996)" gradientUnits="userSpaceOnUse"><stop offset="0%" stop-opacity="1" style="stop-color:rgb(140,181,253)"/><stop offset="100%" stop-opacity="1" style="stop-color:rgb(106,96,241)"/></radialGradient><path d=" M 21.536 3.839 C 21.536 3.374 21.158 2.996 20.693 2.996 L 3.277 2.996 C 2.812 2.996 2.435 3.374 2.435 3.839 L 2.435 21.255 C 2.435 21.72 2.812 22.097 3.277 22.097 L 20.693 22.097 C 21.158 22.097 21.536 21.72 21.536 21.255 L 21.536 3.839 L 21.536 3.839 L 21.536 3.839 L 21.536 3.839 Z " fill-rule="evenodd" fill="url(#_rgradient_19)"/></g><path d=" M 14.734 14.323 C 15.118 14.927 15.299 15.248 15.299 15.583 C 15.299 16.245 14.808 16.565 14.146 16.565 C 13.854 16.565 13.666 16.565 13.19 16.317 C 13.19 16.317 12.882 16.035 12.16 16.064 C 11.432 16.035 11.124 16.321 11.124 16.321 C 10.648 16.568 10.466 16.566 10.175 16.566 C 9.513 16.566 9.022 16.245 9.022 15.584 C 9.022 15.249 9.203 14.928 9.587 14.323 C 9.587 14.323 10.313 13.118 10.941 12.551 C 11.396 12.142 12.058 12.144 12.058 12.144 L 12.263 12.144 L 12.263 12.143 C 12.263 12.143 12.954 12.142 13.38 12.551 C 13.989 13.139 14.734 14.323 14.734 14.323 Z  M 10.544 11.338 C 11.236 11.338 11.796 10.464 11.796 9.386 C 11.796 8.308 11.236 7.434 10.544 7.434 C 9.852 7.434 9.291 8.308 9.291 9.386 C 9.291 10.464 9.852 11.338 10.544 11.338 Z  M 9.343 13.228 C 9.853 12.993 9.97 12.158 9.603 11.364 C 9.236 10.57 8.526 10.116 8.016 10.352 C 7.506 10.587 7.39 11.422 7.756 12.216 C 8.123 13.01 8.834 13.463 9.343 13.228 Z  M 13.456 11.338 C 14.148 11.338 14.708 10.464 14.708 9.386 C 14.708 8.308 14.148 7.434 13.456 7.434 C 12.764 7.434 12.203 8.308 12.203 9.386 C 12.203 10.464 12.764 11.338 13.456 11.338 Z  M 15.984 10.351 C 15.474 10.116 14.763 10.569 14.397 11.364 C 14.03 12.158 14.146 12.993 14.656 13.228 C 15.167 13.463 15.877 13.01 16.243 12.216 C 16.61 11.422 16.494 10.587 15.984 10.351 Z " fill="rgb(255,255,255)"/></g></svg>