<?xml version="1.0" encoding="UTF-8" standalone="no"?><!-- Generator: Gravit.io --><svg xmlns="http://www.w3.org/2000/svg" xmlns:xlink="http://www.w3.org/1999/xlink" style="isolation:isolate" viewBox="0 0 24 24" width="24pt" height="24pt"><defs><clipPath id="_clipPath_unlkHlIRbaJE8BHXfLuuTWC5RgI3D8Em"><rect width="24" height="24"/></clipPath></defs><g clip-path="url(#_clipPath_unlkHlIRbaJE8BHXfLuuTWC5RgI3D8Em)"><clipPath id="_clipPath_FcAOoTREcQPXxlgsOI2ZstUOmDfsSKls"><rect x="0" y="0" width="24" height="24" transform="matrix(1,0,0,1,0,0)" fill="rgb(255,255,255)"/></clipPath><g clip-path="url(#_clipPath_FcAOoTREcQPXxlgsOI2ZstUOmDfsSKls)"><g><clipPath id="_clipPath_P3p8sH2MUikrfhHmcCGydir4Z8pYwVKL"><rect x="0" y="0" width="24" height="24" transform="matrix(1,0,0,1,0,0)" fill="rgb(255,255,255)"/></clipPath><g clip-path="url(#_clipPath_P3p8sH2MUikrfhHmcCGydir4Z8pYwVKL)"><g><g><g><radialGradient id="_rgradient_16" fx="0.5000018204656751" fy="0.5000417188151829" cx="0.5000018204656751" cy="0.5000417188151829" r="1" gradientTransform="matrix(20.599,0,0,2.247,1.685,20.974)" gradientUnits="userSpaceOnUse"><stop offset="0%" stop-opacity="0.2" style="stop-color:rgb(0,0,0)"/><stop offset="100%" stop-opacity="0" style="stop-color:rgb(0,0,0)"/></radialGradient><path d=" M 22.285 22.098 C 22.284 22.714 17.635 23.221 11.985 23.221 C 6.335 23.221 1.686 22.714 1.685 22.098 L 1.685 22.097 C 1.685 21.481 6.335 20.974 11.985 20.974 C 17.635 20.974 22.285 21.481 22.285 22.097 L 22.285 22.098 L 22.285 22.098 L 22.285 22.098 Z " fill="url(#_rgradient_16)"/><g style="opacity:0.4;"><g style="opacity:0.4;"><g style="opacity:0.4;"><g style="opacity:0.4;"><g opacity="0.4"><radialGradient id="_rgradient_17" fx="-0.001409145353342467" fy="0.5" cx="-0.001409145353342467" cy="0.5" r="1" gradientTransform="matrix(2.661,0,0,0.936,19.436,21.723)" gradientUnits="userSpaceOnUse"><stop offset="0%" stop-opacity="0.4" style="stop-color:rgb(24,24,24)"/><stop offset="100%" stop-opacity="0" style="stop-color:rgb(24,24,24)"/></radialGradient><rect x="19.436" y="21.723" width="2.661" height="0.936" transform="matrix(1,0,0,1,0,0)" fill="url(#_rgradient_17)"/></g></g></g></g><g style="opacity:0.4;"><g style="opacity:0.4;"><g style="opacity:0.4;"><g opacity="0.4"><radialGradient id="_rgradient_18" fx="1.001345733812444" fy="0.5" cx="1.001345733812444" cy="0.5" r="1" gradientTransform="matrix(2.661,0,0,0.936,1.873,21.723)" gradientUnits="userSpaceOnUse"><stop offset="0%" stop-opacity="0.4" style="stop-color:rgb(24,24,24)"/><stop offset="100%" stop-opacity="0" style="stop-color:rgb(24,24,24)"/></radialGradient><rect x="1.873" y="21.723" width="2.661" height="0.936" transform="matrix(1,0,0,1,0,0)" fill="url(#_rgradient_18)"/></g></g></g></g><g style="opacity:0.4;"><g style="opacity:0.4;"><g style="opacity:0.4;"><g opacity="0.4"><linearGradient id="_lgradient_4" x1="0.5377906391545042" y1="1.0040048057669182" x2="0.5377906391545046" y2="1.0039660545450133" gradientTransform="matrix(14.902,0,0,0.936,4.534,21.723)" gradientUnits="userSpaceOnUse"><stop offset="0%" stop-opacity="0" style="stop-color:rgb(24,24,24)"/><stop offset="50%" stop-opacity="0.4" style="stop-color:rgb(24,24,24)"/><stop offset="100%" stop-opacity="0" style="stop-color:rgb(24,24,24)"/></linearGradient><rect x="4.534" y="21.723" width="14.902" height="0.936" transform="matrix(1,0,0,1,0,0)" fill="url(#_lgradient_4)"/></g></g></g></g></g><radialGradient id="_rgradient_19" fx="0.4999970551569111" fy="-0.0028741668548094013" cx="0.4999970551569111" cy="-0.0028741668548094013" r="1" gradientTransform="matrix(19.101,0,0,19.101,2.435,2.996)" gradientUnits="userSpaceOnUse"><stop offset="0%" stop-opacity="1" style="stop-color:rgb(253,226,140)"/><stop offset="100%" stop-opacity="1" style="stop-color:rgb(241,190,96)"/></radialGradient><path d=" M 21.536 3.839 C 21.536 3.374 21.158 2.996 20.693 2.996 L 3.277 2.996 C 2.812 2.996 2.435 3.374 2.435 3.839 L 2.435 21.255 C 2.435 21.72 2.812 22.097 3.277 22.097 L 20.693 22.097 C 21.158 22.097 21.536 21.72 21.536 21.255 L 21.536 3.839 L 21.536 3.839 L 21.536 3.839 Z " fill-rule="evenodd" fill="url(#_rgradient_19)"/></g></g></g></g><g filter="url(#aV8lRsXIBL9i5FOvFHZNPxzveVIhk3EG)"><path d=" M 8.991 11.041 L 7.713 11.041 C 7.36 11.041 7.074 11.327 7.074 11.681 L 7.074 15.515 C 7.074 15.869 7.36 16.155 7.713 16.155 L 8.991 16.155 C 9.344 16.155 9.631 15.869 9.631 15.515 L 9.631 11.681 C 9.631 11.327 9.344 11.041 8.991 11.041 Z  M 16.799 13.051 C 16.799 12.866 16.74 12.696 16.64 12.557 C 16.815 12.402 16.926 12.175 16.926 11.922 C 16.926 11.455 16.545 11.122 16.08 11.076 C 15.787 11.047 15.1 10.974 15.1 10.974 L 13.466 10.881 L 13.876 9.411 C 13.929 9.139 13.954 8.862 13.939 8.585 C 13.916 8.151 13.808 7.845 13.306 7.845 C 12.994 7.845 12.889 8.047 12.796 8.328 C 12.65 8.765 12.45 9.181 12.248 9.594 L 11.287 10.633 C 11.109 10.825 10.898 10.987 10.657 11.089 C 10.395 11.199 10.27 11.488 10.27 11.827 L 10.27 15.369 C 10.27 15.803 10.622 16.155 11.055 16.155 L 14.743 16.155 C 15.064 16.155 15.386 16.108 15.692 16.009 C 15.828 15.965 15.952 15.913 16.018 15.857 C 16.218 15.725 16.35 15.498 16.35 15.24 C 16.35 15.115 16.319 14.998 16.264 14.894 C 16.477 14.741 16.616 14.49 16.616 14.208 C 16.616 14.028 16.56 13.862 16.465 13.725 C 16.668 13.571 16.799 13.326 16.799 13.051 L 16.799 13.051 Z " fill-rule="evenodd" fill="rgb(255,255,255)"/></g><defs><filter id="aV8lRsXIBL9i5FOvFHZNPxzveVIhk3EG" x="-200%" y="-200%" width="400%" height="400%" filterUnits="objectBoundingBox" color-interpolation-filters="sRGB"><feGaussianBlur xmlns="http://www.w3.org/2000/svg" in="SourceGraphic" stdDeviation="0.8587218125678057"/><feOffset xmlns="http://www.w3.org/2000/svg" dx="2" dy="2" result="pf_100_offsetBlur"/><feFlood xmlns="http://www.w3.org/2000/svg" flood-color="#000000" flood-opacity="0.05"/><feComposite xmlns="http://www.w3.org/2000/svg" in2="pf_100_offsetBlur" operator="in" result="pf_100_dropShadow"/><feBlend xmlns="http://www.w3.org/2000/svg" in="SourceGraphic" in2="pf_100_dropShadow" mode="normal"/></filter></defs></g></g></g></svg>