<?xml version="1.0" encoding="UTF-8" standalone="no"?><!-- Generator: Gravit.io --><svg xmlns="http://www.w3.org/2000/svg" xmlns:xlink="http://www.w3.org/1999/xlink" style="isolation:isolate" viewBox="0 0 128 128" width="128pt" height="128pt"><defs><clipPath id="_clipPath_3LVFStdQU9djVk0rmLtruibRJlqfB5DD"><rect width="128" height="128"/></clipPath></defs><g clip-path="url(#_clipPath_3LVFStdQU9djVk0rmLtruibRJlqfB5DD)"><clipPath id="_clipPath_Kq553bva7yoadOXMInF6TzQbFOGK85QI"><rect x="0" y="0" width="128" height="128" transform="matrix(1,0,0,1,0,0)" fill="rgb(255,255,255)"/></clipPath><g clip-path="url(#_clipPath_Kq553bva7yoadOXMInF6TzQbFOGK85QI)"><radialGradient id="_rgradient_0" fx="0.5000018204656751" fy="0.5000417188151829" cx="0.5000018204656751" cy="0.5000417188151829" r="1" gradientTransform="matrix(109.862,0,0,11.985,8.989,111.861)" gradientUnits="userSpaceOnUse"><stop offset="0%" stop-opacity="0.2" style="stop-color:rgb(0,0,0)"/><stop offset="100%" stop-opacity="0" style="stop-color:rgb(0,0,0)"/></radialGradient><path d=" M 118.851 117.854 C 118.846 121.141 94.051 123.846 63.92 123.846 C 33.789 123.846 8.994 121.141 8.989 117.854 L 8.989 117.853 C 8.989 114.566 33.786 111.861 63.92 111.861 C 94.055 111.861 118.851 114.566 118.851 117.853 L 118.851 117.854 L 118.851 117.854 L 118.851 117.854 L 118.851 117.854 Z " fill="url(#_rgradient_0)"/><g style="opacity:0.4;"><g style="opacity:0.4;"><g style="opacity:0.4;"><g style="opacity:0.4;"><g style="opacity:0.4;"><g opacity="0.4"><radialGradient id="_rgradient_1" fx="-0.001409145353342467" fy="0.5" cx="-0.001409145353342467" cy="0.5" r="1" gradientTransform="matrix(14.193,0,0,4.994,103.66,115.857)" gradientUnits="userSpaceOnUse"><stop offset="0%" stop-opacity="0.4" style="stop-color:rgb(24,24,24)"/><stop offset="100%" stop-opacity="0" style="stop-color:rgb(24,24,24)"/></radialGradient><rect x="103.66" y="115.857" width="14.193" height="4.994" transform="matrix(1,0,0,1,0,0)" fill="url(#_rgradient_1)"/></g></g></g></g></g><g style="opacity:0.4;"><g style="opacity:0.4;"><g style="opacity:0.4;"><g style="opacity:0.4;"><g opacity="0.4"><radialGradient id="_rgradient_2" fx="1.0013457338124445" fy="0.5" cx="1.0013457338124445" cy="0.5" r="1" gradientTransform="matrix(14.193,0,0,4.994,9.988,115.857)" gradientUnits="userSpaceOnUse"><stop offset="0%" stop-opacity="0.4" style="stop-color:rgb(24,24,24)"/><stop offset="100%" stop-opacity="0" style="stop-color:rgb(24,24,24)"/></radialGradient><rect x="9.988" y="115.857" width="14.193" height="4.994" transform="matrix(1,0,0,1,0,0)" fill="url(#_rgradient_2)"/></g></g></g></g></g><g style="opacity:0.4;"><g style="opacity:0.4;"><g style="opacity:0.4;"><g style="opacity:0.4;"><g opacity="0.4"><linearGradient id="_lgradient_0" x1="0.5377906391545042" y1="1.0040048057669182" x2="0.5377906391545046" y2="1.0040017819617508" gradientTransform="matrix(79.48,0,0,4.994,24.18,115.857)" gradientUnits="userSpaceOnUse"><stop offset="0%" stop-opacity="0" style="stop-color:rgb(24,24,24)"/><stop offset="50%" stop-opacity="0.4" style="stop-color:rgb(24,24,24)"/><stop offset="100%" stop-opacity="0" style="stop-color:rgb(24,24,24)"/></linearGradient><rect x="24.18" y="115.857" width="79.48" height="4.994" transform="matrix(1,0,0,1,0,0)" fill="url(#_lgradient_0)"/></g></g></g></g></g></g><radialGradient id="_rgradient_3" fx="0.4999970551569111" fy="-0.0028741668548094013" cx="0.4999970551569111" cy="-0.0028741668548094013" r="1" gradientTransform="matrix(101.873,0,0,101.873,12.984,15.98)" gradientUnits="userSpaceOnUse"><stop offset="0%" stop-opacity="1" style="stop-color:rgb(140,181,253)"/><stop offset="100%" stop-opacity="1" style="stop-color:rgb(106,96,241)"/></radialGradient><path d=" M 114.857 20.474 C 114.857 17.994 112.843 15.98 110.362 15.98 L 17.478 15.98 C 14.998 15.98 12.984 17.994 12.984 20.474 L 12.984 113.358 C 12.984 115.839 14.998 117.853 17.478 117.853 L 110.362 117.853 C 112.843 117.853 114.857 115.839 114.857 113.358 L 114.857 20.474 L 114.857 20.474 L 114.857 20.474 L 114.857 20.474 Z " fill-rule="evenodd" fill="url(#_rgradient_3)"/></g><path d=" M 78.58 76.388 C 80.628 79.613 81.593 81.325 81.593 83.111 C 81.593 86.638 78.974 88.348 75.445 88.348 C 73.889 88.348 72.885 88.346 70.347 87.026 C 70.347 87.026 68.703 85.521 64.855 85.676 C 60.971 85.522 59.326 87.045 59.326 87.045 C 56.788 88.364 55.82 88.35 54.266 88.35 C 50.737 88.35 48.116 86.642 48.116 83.113 C 48.116 81.327 49.084 79.617 51.131 76.39 C 51.131 76.39 55.001 69.963 58.354 66.94 C 60.778 64.758 64.31 64.766 64.31 64.766 L 65.4 64.766 L 65.4 64.765 C 65.4 64.765 69.088 64.756 71.359 66.94 C 74.609 70.073 78.58 76.389 78.58 76.388 Z  M 56.233 60.469 C 59.923 60.469 62.913 55.808 62.913 50.059 C 62.913 44.311 59.923 39.65 56.233 39.65 C 52.544 39.65 49.554 44.311 49.554 50.059 C 49.554 55.808 52.544 60.469 56.233 60.469 Z  M 49.832 70.55 C 52.551 69.294 53.171 64.843 51.216 60.607 C 49.26 56.371 45.471 53.954 42.752 55.209 C 40.033 56.463 39.413 60.915 41.368 65.151 C 43.323 69.387 47.113 71.803 49.832 70.55 Z  M 71.764 60.469 C 75.454 60.469 78.445 55.808 78.445 50.059 C 78.445 44.311 75.454 39.65 71.764 39.65 C 68.075 39.65 65.084 44.311 65.084 50.059 C 65.084 55.808 68.075 60.469 71.764 60.469 Z  M 85.247 55.208 C 82.526 53.952 78.738 56.369 76.783 60.606 C 74.827 64.843 75.448 69.294 78.168 70.55 C 80.888 71.804 84.676 69.387 86.632 65.151 C 88.587 60.915 87.967 56.463 85.247 55.208 Z " fill="rgb(255,255,255)"/></g></svg>