<?xml version="1.0" encoding="UTF-8" standalone="no"?><!-- Generator: Gravit.io --><svg xmlns="http://www.w3.org/2000/svg" xmlns:xlink="http://www.w3.org/1999/xlink" style="isolation:isolate" viewBox="0 0 16 16" width="16pt" height="16pt"><defs><clipPath id="_clipPath_wUe34pCdMfDtPRCyj49vKUq4xuMWjThE"><rect width="16" height="16"/></clipPath></defs><g clip-path="url(#_clipPath_wUe34pCdMfDtPRCyj49vKUq4xuMWjThE)"><clipPath id="_clipPath_DSuvo4gHkrG4hW2bDCHqzRdPQzUVO39L"><rect x="0" y="0" width="16" height="16" transform="matrix(1,0,0,1,0,0)" fill="rgb(255,255,255)"/></clipPath><g clip-path="url(#_clipPath_DSuvo4gHkrG4hW2bDCHqzRdPQzUVO39L)"><g><clipPath id="_clipPath_FQDZN8RxK7BLxTLrSGCejX3lwyEWdbWi"><rect x="0" y="0" width="16" height="16" transform="matrix(1,0,0,1,0,0)" fill="rgb(255,255,255)"/></clipPath><g clip-path="url(#_clipPath_FQDZN8RxK7BLxTLrSGCejX3lwyEWdbWi)"><g><g><g><radialGradient id="_rgradient_20" fx="0.5000018204656751" fy="0.5000417188151829" cx="0.5000018204656751" cy="0.5000417188151829" r="1" gradientTransform="matrix(13.733,0,0,1.498,1.124,13.983)" gradientUnits="userSpaceOnUse"><stop offset="0%" stop-opacity="0.2" style="stop-color:rgb(0,0,0)"/><stop offset="100%" stop-opacity="0" style="stop-color:rgb(0,0,0)"/></radialGradient><path d=" M 14.856 14.732 C 14.856 15.143 11.756 15.481 7.99 15.481 C 4.224 15.481 1.124 15.143 1.124 14.732 L 1.124 14.732 C 1.124 14.321 4.223 13.983 7.99 13.983 C 11.757 13.983 14.856 14.321 14.856 14.732 L 14.856 14.732 L 14.856 14.732 L 14.856 14.732 Z " fill="url(#_rgradient_20)"/><g style="opacity:0.4;"><g style="opacity:0.4;"><g style="opacity:0.4;"><g style="opacity:0.4;"><g opacity="0.4"><radialGradient id="_rgradient_21" fx="-0.001409145353342467" fy="0.5" cx="-0.001409145353342467" cy="0.5" r="1" gradientTransform="matrix(1.774,0,0,0.624,12.957,14.482)" gradientUnits="userSpaceOnUse"><stop offset="0%" stop-opacity="0.4" style="stop-color:rgb(24,24,24)"/><stop offset="100%" stop-opacity="0" style="stop-color:rgb(24,24,24)"/></radialGradient><rect x="12.957" y="14.482" width="1.774" height="0.624" transform="matrix(1,0,0,1,0,0)" fill="url(#_rgradient_21)"/></g></g></g></g><g style="opacity:0.4;"><g style="opacity:0.4;"><g style="opacity:0.4;"><g opacity="0.4"><radialGradient id="_rgradient_22" fx="1.001345733812444" fy="0.5" cx="1.001345733812444" cy="0.5" r="1" gradientTransform="matrix(1.774,0,0,0.624,1.249,14.482)" gradientUnits="userSpaceOnUse"><stop offset="0%" stop-opacity="0.4" style="stop-color:rgb(24,24,24)"/><stop offset="100%" stop-opacity="0" style="stop-color:rgb(24,24,24)"/></radialGradient><rect x="1.249" y="14.482" width="1.774" height="0.624" transform="matrix(1,0,0,1,0,0)" fill="url(#_rgradient_22)"/></g></g></g></g><g style="opacity:0.4;"><g style="opacity:0.4;"><g style="opacity:0.4;"><g opacity="0.4"><linearGradient id="_lgradient_5" x1="0.5377906391545042" y1="1.0040048057669182" x2="0.5377906391545046" y2="1.0039660545450133" gradientTransform="matrix(9.935,0,0,0.624,3.023,14.482)" gradientUnits="userSpaceOnUse"><stop offset="0%" stop-opacity="0" style="stop-color:rgb(24,24,24)"/><stop offset="50%" stop-opacity="0.4" style="stop-color:rgb(24,24,24)"/><stop offset="100%" stop-opacity="0" style="stop-color:rgb(24,24,24)"/></linearGradient><rect x="3.023" y="14.482" width="9.935" height="0.624" transform="matrix(1,0,0,1,0,0)" fill="url(#_lgradient_5)"/></g></g></g></g></g><radialGradient id="_rgradient_23" fx="0.4999970551569111" fy="-0.0028741668548094013" cx="0.4999970551569111" cy="-0.0028741668548094013" r="1" gradientTransform="matrix(12.734,0,0,12.734,1.623,1.998)" gradientUnits="userSpaceOnUse"><stop offset="0%" stop-opacity="1" style="stop-color:rgb(253,226,140)"/><stop offset="100%" stop-opacity="1" style="stop-color:rgb(241,190,96)"/></radialGradient><path d=" M 14.357 2.559 C 14.357 2.249 14.105 1.998 13.795 1.998 L 2.185 1.998 C 1.875 1.998 1.623 2.249 1.623 2.559 L 1.623 14.17 C 1.623 14.48 1.875 14.732 2.185 14.732 L 13.795 14.732 C 14.105 14.732 14.357 14.48 14.357 14.17 L 14.357 2.559 L 14.357 2.559 L 14.357 2.559 Z " fill-rule="evenodd" fill="url(#_rgradient_23)"/></g></g></g></g><g filter="url(#PAKfRY3VqcPqkJKHqLmOBqnkDdCzNBwI)"><path d=" M 5.994 7.361 L 5.142 7.361 C 4.907 7.361 4.716 7.552 4.716 7.787 L 4.716 10.344 C 4.716 10.579 4.907 10.77 5.142 10.77 L 5.994 10.77 C 6.23 10.77 6.42 10.579 6.42 10.344 L 6.42 7.787 C 6.42 7.552 6.23 7.361 5.994 7.361 Z  M 11.2 8.701 C 11.2 8.578 11.16 8.464 11.093 8.371 C 11.21 8.268 11.284 8.117 11.284 7.948 C 11.284 7.637 11.03 7.415 10.72 7.384 C 10.525 7.364 10.067 7.316 10.067 7.316 L 8.977 7.254 L 9.251 6.274 C 9.286 6.093 9.303 5.908 9.293 5.724 C 9.278 5.434 9.205 5.23 8.871 5.23 C 8.663 5.23 8.593 5.365 8.531 5.552 C 8.434 5.843 8.3 6.121 8.165 6.396 L 7.525 7.089 C 7.406 7.217 7.265 7.325 7.105 7.393 C 6.93 7.466 6.847 7.659 6.847 7.885 L 6.847 10.246 C 6.847 10.535 7.081 10.77 7.37 10.77 L 9.828 10.77 C 10.043 10.77 10.257 10.739 10.461 10.673 C 10.552 10.643 10.635 10.609 10.679 10.571 C 10.812 10.483 10.9 10.332 10.9 10.16 C 10.9 10.077 10.879 9.998 10.843 9.93 C 10.985 9.827 11.077 9.66 11.077 9.472 C 11.077 9.352 11.04 9.241 10.976 9.15 C 11.112 9.047 11.2 8.884 11.2 8.701 L 11.2 8.701 Z " fill-rule="evenodd" fill="rgb(255,255,255)"/></g><defs><filter id="PAKfRY3VqcPqkJKHqLmOBqnkDdCzNBwI" x="-200%" y="-200%" width="400%" height="400%" filterUnits="objectBoundingBox" color-interpolation-filters="sRGB"><feGaussianBlur xmlns="http://www.w3.org/2000/svg" in="SourceGraphic" stdDeviation="0.8587218125678057"/><feOffset xmlns="http://www.w3.org/2000/svg" dx="2" dy="2" result="pf_100_offsetBlur"/><feFlood xmlns="http://www.w3.org/2000/svg" flood-color="#000000" flood-opacity="0.05"/><feComposite xmlns="http://www.w3.org/2000/svg" in2="pf_100_offsetBlur" operator="in" result="pf_100_dropShadow"/><feBlend xmlns="http://www.w3.org/2000/svg" in="SourceGraphic" in2="pf_100_dropShadow" mode="normal"/></filter></defs></g></g></g></svg>