<?xml version="1.0" encoding="UTF-8" standalone="no"?><!-- Generator: Gravit.io --><svg xmlns="http://www.w3.org/2000/svg" xmlns:xlink="http://www.w3.org/1999/xlink" style="isolation:isolate" viewBox="0 0 16 16" width="16pt" height="16pt"><defs><clipPath id="_clipPath_Rp7m9iu0RZJSbOLSywme4AfwNpVdkGrw"><rect width="16" height="16"/></clipPath></defs><g clip-path="url(#_clipPath_Rp7m9iu0RZJSbOLSywme4AfwNpVdkGrw)"><clipPath id="_clipPath_c24OstS1boB04u5u1woZ2OglB2y2JcQv"><rect x="0" y="0" width="16" height="16" transform="matrix(1,0,0,1,0,0)" fill="rgb(255,255,255)"/></clipPath><g clip-path="url(#_clipPath_c24OstS1boB04u5u1woZ2OglB2y2JcQv)"><radialGradient id="_rgradient_20" fx="0.5000018204656751" fy="0.5000417188151829" cx="0.5000018204656751" cy="0.5000417188151829" r="1" gradientTransform="matrix(13.733,0,0,1.498,1.124,13.983)" gradientUnits="userSpaceOnUse"><stop offset="0%" stop-opacity="0.2" style="stop-color:rgb(0,0,0)"/><stop offset="100%" stop-opacity="0" style="stop-color:rgb(0,0,0)"/></radialGradient><path d=" M 14.856 14.732 C 14.856 15.143 11.756 15.481 7.99 15.481 C 4.224 15.481 1.124 15.143 1.124 14.732 L 1.124 14.732 C 1.124 14.321 4.223 13.983 7.99 13.983 C 11.757 13.983 14.856 14.321 14.856 14.732 L 14.856 14.732 L 14.856 14.732 L 14.856 14.732 L 14.856 14.732 Z " fill="url(#_rgradient_20)"/><g style="opacity:0.4;"><g style="opacity:0.4;"><g style="opacity:0.4;"><g style="opacity:0.4;"><g style="opacity:0.4;"><g opacity="0.4"><radialGradient id="_rgradient_21" fx="-0.001409145353342467" fy="0.5" cx="-0.001409145353342467" cy="0.5" r="1" gradientTransform="matrix(1.774,0,0,0.624,12.957,14.482)" gradientUnits="userSpaceOnUse"><stop offset="0%" stop-opacity="0.4" style="stop-color:rgb(24,24,24)"/><stop offset="100%" stop-opacity="0" style="stop-color:rgb(24,24,24)"/></radialGradient><rect x="12.957" y="14.482" width="1.774" height="0.624" transform="matrix(1,0,0,1,0,0)" fill="url(#_rgradient_21)"/></g></g></g></g></g><g style="opacity:0.4;"><g style="opacity:0.4;"><g style="opacity:0.4;"><g style="opacity:0.4;"><g opacity="0.4"><radialGradient id="_rgradient_22" fx="1.0013457338124445" fy="0.5" cx="1.0013457338124445" cy="0.5" r="1" gradientTransform="matrix(1.774,0,0,0.624,1.249,14.482)" gradientUnits="userSpaceOnUse"><stop offset="0%" stop-opacity="0.4" style="stop-color:rgb(24,24,24)"/><stop offset="100%" stop-opacity="0" style="stop-color:rgb(24,24,24)"/></radialGradient><rect x="1.249" y="14.482" width="1.774" height="0.624" transform="matrix(1,0,0,1,0,0)" fill="url(#_rgradient_22)"/></g></g></g></g></g><g style="opacity:0.4;"><g style="opacity:0.4;"><g style="opacity:0.4;"><g style="opacity:0.4;"><g opacity="0.4"><linearGradient id="_lgradient_5" x1="0.5377906391545042" y1="1.0040048057669182" x2="0.5377906391545046" y2="1.0040017819617508" gradientTransform="matrix(9.935,0,0,0.624,3.023,14.482)" gradientUnits="userSpaceOnUse"><stop offset="0%" stop-opacity="0" style="stop-color:rgb(24,24,24)"/><stop offset="50%" stop-opacity="0.4" style="stop-color:rgb(24,24,24)"/><stop offset="100%" stop-opacity="0" style="stop-color:rgb(24,24,24)"/></linearGradient><rect x="3.023" y="14.482" width="9.935" height="0.624" transform="matrix(1,0,0,1,0,0)" fill="url(#_lgradient_5)"/></g></g></g></g></g></g><radialGradient id="_rgradient_23" fx="0.4999970551569111" fy="-0.0028741668548094013" cx="0.4999970551569111" cy="-0.0028741668548094013" r="1" gradientTransform="matrix(12.734,0,0,12.734,1.623,1.998)" gradientUnits="userSpaceOnUse"><stop offset="0%" stop-opacity="1" style="stop-color:rgb(140,181,253)"/><stop offset="100%" stop-opacity="1" style="stop-color:rgb(106,96,241)"/></radialGradient><path d=" M 14.357 2.559 C 14.357 2.249 14.105 1.998 13.795 1.998 L 2.185 1.998 C 1.875 1.998 1.623 2.249 1.623 2.559 L 1.623 14.17 C 1.623 14.48 1.875 14.732 2.185 14.732 L 13.795 14.732 C 14.105 14.732 14.357 14.48 14.357 14.17 L 14.357 2.559 L 14.357 2.559 L 14.357 2.559 L 14.357 2.559 Z " fill-rule="evenodd" fill="url(#_rgradient_23)"/></g><path d=" M 9.822 9.549 C 10.078 9.952 10.199 10.166 10.199 10.389 C 10.199 10.83 9.872 11.044 9.431 11.044 C 9.236 11.044 9.111 11.043 8.793 10.878 C 8.793 10.878 8.588 10.69 8.107 10.709 C 7.621 10.69 7.416 10.881 7.416 10.881 C 7.098 11.045 6.977 11.044 6.783 11.044 C 6.342 11.044 6.014 10.83 6.014 10.389 C 6.014 10.166 6.135 9.952 6.391 9.549 C 6.391 9.549 6.875 8.745 7.294 8.368 C 7.597 8.095 8.039 8.096 8.039 8.096 L 8.175 8.096 L 8.175 8.096 C 8.175 8.096 8.636 8.095 8.92 8.368 C 9.326 8.759 9.822 9.549 9.822 9.549 Z  M 7.029 7.559 C 7.49 7.559 7.864 6.976 7.864 6.257 C 7.864 5.539 7.49 4.956 7.029 4.956 C 6.568 4.956 6.194 5.539 6.194 6.257 C 6.194 6.976 6.568 7.559 7.029 7.559 Z  M 6.229 8.819 C 6.569 8.662 6.646 8.105 6.402 7.576 C 6.158 7.046 5.684 6.744 5.344 6.901 C 5.004 7.058 4.927 7.614 5.171 8.144 C 5.415 8.673 5.889 8.975 6.229 8.819 Z  M 8.971 7.559 C 9.432 7.559 9.806 6.976 9.806 6.257 C 9.806 5.539 9.432 4.956 8.971 4.956 C 8.509 4.956 8.136 5.539 8.136 6.257 C 8.136 6.976 8.509 7.559 8.971 7.559 Z  M 10.656 6.901 C 10.316 6.744 9.842 7.046 9.598 7.576 C 9.353 8.105 9.431 8.662 9.771 8.819 C 10.111 8.976 10.585 8.673 10.829 8.144 C 11.073 7.614 10.996 7.058 10.656 6.901 Z " fill="rgb(255,255,255)"/></g></svg>