<?xml version="1.0" encoding="UTF-8" standalone="no"?><!-- Generator: Gravit.io --><svg xmlns="http://www.w3.org/2000/svg" xmlns:xlink="http://www.w3.org/1999/xlink" style="isolation:isolate" viewBox="0 0 32 32" width="32pt" height="32pt"><defs><clipPath id="_clipPath_raUYlUFd5HiGF5EyJIjODeFbKNbSAWWT"><rect width="32" height="32"/></clipPath></defs><g clip-path="url(#_clipPath_raUYlUFd5HiGF5EyJIjODeFbKNbSAWWT)"><clipPath id="_clipPath_0PVab3GhDy8wfY6VUrKZWqnej96jMISq"><rect x="0" y="0" width="32" height="32" transform="matrix(1,0,0,1,0,0)" fill="rgb(255,255,255)"/></clipPath><g clip-path="url(#_clipPath_0PVab3GhDy8wfY6VUrKZWqnej96jMISq)"><g><clipPath id="_clipPath_TR95LW53Z8zH4KveD1a7LoGmAIFRBXB4"><rect x="0" y="0" width="32" height="32" transform="matrix(1,0,0,1,0,0)" fill="rgb(255,255,255)"/></clipPath><g clip-path="url(#_clipPath_TR95LW53Z8zH4KveD1a7LoGmAIFRBXB4)"><g><g><g><radialGradient id="_rgradient_12" fx="0.5000018204656751" fy="0.5000417188151829" cx="0.5000018204656751" cy="0.5000417188151829" r="1" gradientTransform="matrix(27.466,0,0,2.996,2.247,27.965)" gradientUnits="userSpaceOnUse"><stop offset="0%" stop-opacity="0.2" style="stop-color:rgb(0,0,0)"/><stop offset="100%" stop-opacity="0" style="stop-color:rgb(0,0,0)"/></radialGradient><path d=" M 29.713 29.464 C 29.712 30.285 23.513 30.962 15.98 30.962 C 8.447 30.962 2.249 30.285 2.247 29.464 L 2.247 29.463 C 2.247 28.642 8.447 27.965 15.98 27.965 C 23.514 27.965 29.713 28.642 29.713 29.463 L 29.713 29.464 L 29.713 29.464 L 29.713 29.464 Z " fill="url(#_rgradient_12)"/><g style="opacity:0.4;"><g style="opacity:0.4;"><g style="opacity:0.4;"><g style="opacity:0.4;"><g opacity="0.4"><radialGradient id="_rgradient_13" fx="-0.001409145353342467" fy="0.5" cx="-0.001409145353342467" cy="0.5" r="1" gradientTransform="matrix(3.548,0,0,1.249,25.915,28.964)" gradientUnits="userSpaceOnUse"><stop offset="0%" stop-opacity="0.4" style="stop-color:rgb(24,24,24)"/><stop offset="100%" stop-opacity="0" style="stop-color:rgb(24,24,24)"/></radialGradient><rect x="25.915" y="28.964" width="3.548" height="1.249" transform="matrix(1,0,0,1,0,0)" fill="url(#_rgradient_13)"/></g></g></g></g><g style="opacity:0.4;"><g style="opacity:0.4;"><g style="opacity:0.4;"><g opacity="0.4"><radialGradient id="_rgradient_14" fx="1.001345733812444" fy="0.5" cx="1.001345733812444" cy="0.5" r="1" gradientTransform="matrix(3.548,0,0,1.249,2.497,28.964)" gradientUnits="userSpaceOnUse"><stop offset="0%" stop-opacity="0.4" style="stop-color:rgb(24,24,24)"/><stop offset="100%" stop-opacity="0" style="stop-color:rgb(24,24,24)"/></radialGradient><rect x="2.497" y="28.964" width="3.548" height="1.249" transform="matrix(1,0,0,1,0,0)" fill="url(#_rgradient_14)"/></g></g></g></g><g style="opacity:0.4;"><g style="opacity:0.4;"><g style="opacity:0.4;"><g opacity="0.4"><linearGradient id="_lgradient_3" x1="0.5377906391545042" y1="1.0040048057669182" x2="0.5377906391545046" y2="1.0039660545450133" gradientTransform="matrix(19.87,0,0,1.249,6.045,28.964)" gradientUnits="userSpaceOnUse"><stop offset="0%" stop-opacity="0" style="stop-color:rgb(24,24,24)"/><stop offset="50%" stop-opacity="0.4" style="stop-color:rgb(24,24,24)"/><stop offset="100%" stop-opacity="0" style="stop-color:rgb(24,24,24)"/></linearGradient><rect x="6.045" y="28.964" width="19.87" height="1.249" transform="matrix(1,0,0,1,0,0)" fill="url(#_lgradient_3)"/></g></g></g></g></g><radialGradient id="_rgradient_15" fx="0.4999970551569111" fy="-0.0028741668548094013" cx="0.4999970551569111" cy="-0.0028741668548094013" r="1" gradientTransform="matrix(25.468,0,0,25.468,3.246,3.995)" gradientUnits="userSpaceOnUse"><stop offset="0%" stop-opacity="1" style="stop-color:rgb(253,226,140)"/><stop offset="100%" stop-opacity="1" style="stop-color:rgb(241,190,96)"/></radialGradient><path d=" M 28.714 5.119 C 28.714 4.499 28.211 3.995 27.591 3.995 L 4.37 3.995 C 3.75 3.995 3.246 4.499 3.246 5.119 L 3.246 28.34 C 3.246 28.96 3.75 29.463 4.37 29.463 L 27.591 29.463 C 28.211 29.463 28.714 28.96 28.714 28.34 L 28.714 5.119 L 28.714 5.119 L 28.714 5.119 Z " fill-rule="evenodd" fill="url(#_rgradient_15)"/></g></g></g></g><g filter="url(#qyNZjXjX9eRDdXcOnF1uTxArv6UPoLU5)"><path d=" M 11.989 14.722 L 10.284 14.722 C 9.813 14.722 9.432 15.103 9.432 15.574 L 9.432 20.687 C 9.432 21.158 9.813 21.54 10.284 21.54 L 11.989 21.54 C 12.459 21.54 12.841 21.158 12.841 20.687 L 12.841 15.574 C 12.841 15.103 12.459 14.722 11.989 14.722 Z  M 22.399 17.401 C 22.399 17.155 22.32 16.928 22.187 16.742 C 22.421 16.536 22.568 16.233 22.568 15.896 C 22.568 15.273 22.06 14.83 21.44 14.768 C 21.049 14.729 20.134 14.633 20.134 14.633 L 17.954 14.509 L 18.501 12.548 C 18.572 12.186 18.605 11.816 18.586 11.447 C 18.555 10.868 18.41 10.461 17.741 10.461 C 17.325 10.461 17.186 10.73 17.061 11.104 C 16.867 11.686 16.601 12.241 16.33 12.792 L 15.049 14.177 C 14.812 14.433 14.531 14.65 14.209 14.785 C 13.86 14.932 13.693 15.317 13.693 15.769 L 13.693 20.492 C 13.693 21.071 14.162 21.54 14.741 21.54 L 19.657 21.54 C 20.086 21.54 20.514 21.478 20.923 21.346 C 21.104 21.287 21.27 21.218 21.358 21.143 C 21.624 20.966 21.801 20.664 21.801 20.32 C 21.801 20.154 21.759 19.997 21.686 19.859 C 21.97 19.654 22.155 19.321 22.155 18.944 C 22.155 18.705 22.08 18.483 21.953 18.3 C 22.224 18.094 22.399 17.768 22.399 17.401 L 22.399 17.401 Z " fill-rule="evenodd" fill="rgb(255,255,255)"/></g><defs><filter id="qyNZjXjX9eRDdXcOnF1uTxArv6UPoLU5" x="-200%" y="-200%" width="400%" height="400%" filterUnits="objectBoundingBox" color-interpolation-filters="sRGB"><feGaussianBlur xmlns="http://www.w3.org/2000/svg" in="SourceGraphic" stdDeviation="0.8587218125678057"/><feOffset xmlns="http://www.w3.org/2000/svg" dx="2" dy="2" result="pf_100_offsetBlur"/><feFlood xmlns="http://www.w3.org/2000/svg" flood-color="#000000" flood-opacity="0.05"/><feComposite xmlns="http://www.w3.org/2000/svg" in2="pf_100_offsetBlur" operator="in" result="pf_100_dropShadow"/><feBlend xmlns="http://www.w3.org/2000/svg" in="SourceGraphic" in2="pf_100_dropShadow" mode="normal"/></filter></defs></g></g></g></svg>