<?xml version="1.0" encoding="UTF-8" standalone="no"?><!-- Generator: Gravit.io --><svg xmlns="http://www.w3.org/2000/svg" xmlns:xlink="http://www.w3.org/1999/xlink" style="isolation:isolate" viewBox="0 0 32 32" width="32pt" height="32pt"><defs><clipPath id="_clipPath_xdyLjxcT4JruYvHkuCtTDv1cc6vHxDdD"><rect width="32" height="32"/></clipPath></defs><g clip-path="url(#_clipPath_xdyLjxcT4JruYvHkuCtTDv1cc6vHxDdD)"><clipPath id="_clipPath_VvmNVKbqjcAT2ASLJen2QyXPbz7qZu71"><rect x="0" y="0" width="32" height="32" transform="matrix(1,0,0,1,0,0)" fill="rgb(255,255,255)"/></clipPath><g clip-path="url(#_clipPath_VvmNVKbqjcAT2ASLJen2QyXPbz7qZu71)"><radialGradient id="_rgradient_12" fx="0.5000018204656751" fy="0.5000417188151829" cx="0.5000018204656751" cy="0.5000417188151829" r="1" gradientTransform="matrix(27.466,0,0,2.996,2.247,27.965)" gradientUnits="userSpaceOnUse"><stop offset="0%" stop-opacity="0.2" style="stop-color:rgb(0,0,0)"/><stop offset="100%" stop-opacity="0" style="stop-color:rgb(0,0,0)"/></radialGradient><path d=" M 29.713 29.464 C 29.712 30.285 23.513 30.962 15.98 30.962 C 8.447 30.962 2.249 30.285 2.247 29.464 L 2.247 29.463 C 2.247 28.642 8.447 27.965 15.98 27.965 C 23.514 27.965 29.713 28.642 29.713 29.463 L 29.713 29.464 L 29.713 29.464 L 29.713 29.464 L 29.713 29.464 Z " fill="url(#_rgradient_12)"/><g style="opacity:0.4;"><g style="opacity:0.4;"><g style="opacity:0.4;"><g style="opacity:0.4;"><g style="opacity:0.4;"><g opacity="0.4"><radialGradient id="_rgradient_13" fx="-0.001409145353342467" fy="0.5" cx="-0.001409145353342467" cy="0.5" r="1" gradientTransform="matrix(3.548,0,0,1.249,25.915,28.964)" gradientUnits="userSpaceOnUse"><stop offset="0%" stop-opacity="0.4" style="stop-color:rgb(24,24,24)"/><stop offset="100%" stop-opacity="0" style="stop-color:rgb(24,24,24)"/></radialGradient><rect x="25.915" y="28.964" width="3.548" height="1.249" transform="matrix(1,0,0,1,0,0)" fill="url(#_rgradient_13)"/></g></g></g></g></g><g style="opacity:0.4;"><g style="opacity:0.4;"><g style="opacity:0.4;"><g style="opacity:0.4;"><g opacity="0.4"><radialGradient id="_rgradient_14" fx="1.0013457338124445" fy="0.5" cx="1.0013457338124445" cy="0.5" r="1" gradientTransform="matrix(3.548,0,0,1.249,2.497,28.964)" gradientUnits="userSpaceOnUse"><stop offset="0%" stop-opacity="0.4" style="stop-color:rgb(24,24,24)"/><stop offset="100%" stop-opacity="0" style="stop-color:rgb(24,24,24)"/></radialGradient><rect x="2.497" y="28.964" width="3.548" height="1.249" transform="matrix(1,0,0,1,0,0)" fill="url(#_rgradient_14)"/></g></g></g></g></g><g style="opacity:0.4;"><g style="opacity:0.4;"><g style="opacity:0.4;"><g style="opacity:0.4;"><g opacity="0.4"><linearGradient id="_lgradient_3" x1="0.5377906391545042" y1="1.0040048057669182" x2="0.5377906391545046" y2="1.0040017819617508" gradientTransform="matrix(19.87,0,0,1.249,6.045,28.964)" gradientUnits="userSpaceOnUse"><stop offset="0%" stop-opacity="0" style="stop-color:rgb(24,24,24)"/><stop offset="50%" stop-opacity="0.4" style="stop-color:rgb(24,24,24)"/><stop offset="100%" stop-opacity="0" style="stop-color:rgb(24,24,24)"/></linearGradient><rect x="6.045" y="28.964" width="19.87" height="1.249" transform="matrix(1,0,0,1,0,0)" fill="url(#_lgradient_3)"/></g></g></g></g></g></g><radialGradient id="_rgradient_15" fx="0.4999970551569111" fy="-0.0028741668548094013" cx="0.4999970551569111" cy="-0.0028741668548094013" r="1" gradientTransform="matrix(25.468,0,0,25.468,3.246,3.995)" gradientUnits="userSpaceOnUse"><stop offset="0%" stop-opacity="1" style="stop-color:rgb(140,181,253)"/><stop offset="100%" stop-opacity="1" style="stop-color:rgb(106,96,241)"/></radialGradient><path d=" M 28.714 5.119 C 28.714 4.499 28.211 3.995 27.591 3.995 L 4.37 3.995 C 3.75 3.995 3.246 4.499 3.246 5.119 L 3.246 28.34 C 3.246 28.96 3.75 29.463 4.37 29.463 L 27.591 29.463 C 28.211 29.463 28.714 28.96 28.714 28.34 L 28.714 5.119 L 28.714 5.119 L 28.714 5.119 L 28.714 5.119 Z " fill-rule="evenodd" fill="url(#_rgradient_15)"/></g><path d=" M 19.645 19.097 C 20.157 19.903 20.398 20.331 20.398 20.778 C 20.398 21.659 19.743 22.087 18.861 22.087 C 18.472 22.087 18.221 22.087 17.587 21.756 C 17.587 21.756 17.176 21.38 16.214 21.419 C 15.243 21.381 14.831 21.761 14.831 21.761 C 14.197 22.091 13.955 22.087 13.567 22.087 C 12.684 22.087 12.029 21.66 12.029 20.778 C 12.029 20.332 12.271 19.904 12.783 19.098 C 12.783 19.098 13.75 17.491 14.589 16.735 C 15.194 16.19 16.078 16.192 16.078 16.192 L 16.35 16.192 L 16.35 16.191 C 16.35 16.191 17.272 16.189 17.84 16.735 C 18.652 17.518 19.645 19.097 19.645 19.097 Z  M 14.058 15.117 C 14.981 15.117 15.728 13.952 15.728 12.515 C 15.728 11.078 14.981 9.912 14.058 9.912 C 13.136 9.912 12.388 11.078 12.388 12.515 C 12.388 13.952 13.136 15.117 14.058 15.117 Z  M 12.458 17.637 C 13.138 17.324 13.293 16.211 12.804 15.152 C 12.315 14.093 11.368 13.489 10.688 13.802 C 10.008 14.116 9.853 15.229 10.342 16.288 C 10.831 17.347 11.778 17.951 12.458 17.637 Z  M 17.941 15.117 C 18.863 15.117 19.611 13.952 19.611 12.515 C 19.611 11.078 18.863 9.912 17.941 9.912 C 17.019 9.912 16.271 11.078 16.271 12.515 C 16.271 13.952 17.019 15.117 17.941 15.117 Z  M 21.312 13.802 C 20.632 13.488 19.685 14.092 19.196 15.152 C 18.707 16.211 18.862 17.324 19.542 17.637 C 20.222 17.951 21.169 17.347 21.658 16.288 C 22.147 15.229 21.992 14.116 21.312 13.802 Z " fill="rgb(255,255,255)"/></g></svg>