<?xml version="1.0" encoding="UTF-8" standalone="no"?><!-- Generator: Gravit.io --><svg xmlns="http://www.w3.org/2000/svg" xmlns:xlink="http://www.w3.org/1999/xlink" style="isolation:isolate" viewBox="0 0 64 64" width="64pt" height="64pt"><defs><clipPath id="_clipPath_7C7VxEl2Ya5T1QYC8GI4ooLt9s4ObL9Z"><rect width="64" height="64"/></clipPath></defs><g clip-path="url(#_clipPath_7C7VxEl2Ya5T1QYC8GI4ooLt9s4ObL9Z)"><clipPath id="_clipPath_Eapt781KTG6HgLZmcRmOCA4dKPmx6U5X"><rect x="0" y="0" width="64" height="64" transform="matrix(1,0,0,1,0,0)" fill="rgb(255,255,255)"/></clipPath><g clip-path="url(#_clipPath_Eapt781KTG6HgLZmcRmOCA4dKPmx6U5X)"><radialGradient id="_rgradient_4" fx="0.5000018204656751" fy="0.5000417188151829" cx="0.5000018204656751" cy="0.5000417188151829" r="1" gradientTransform="matrix(54.931,0,0,5.993,4.495,55.931)" gradientUnits="userSpaceOnUse"><stop offset="0%" stop-opacity="0.2" style="stop-color:rgb(0,0,0)"/><stop offset="100%" stop-opacity="0" style="stop-color:rgb(0,0,0)"/></radialGradient><path d=" M 59.426 58.927 C 59.423 60.571 47.026 61.923 31.96 61.923 C 16.895 61.923 4.497 60.571 4.495 58.927 L 4.495 58.927 C 4.495 57.283 16.893 55.931 31.96 55.931 C 47.028 55.931 59.426 57.283 59.426 58.927 L 59.426 58.927 L 59.426 58.927 L 59.426 58.927 L 59.426 58.927 Z " fill="url(#_rgradient_4)"/><g style="opacity:0.4;"><g style="opacity:0.4;"><g style="opacity:0.4;"><g style="opacity:0.4;"><g style="opacity:0.4;"><g opacity="0.4"><radialGradient id="_rgradient_5" fx="-0.001409145353342467" fy="0.5" cx="-0.001409145353342467" cy="0.5" r="1" gradientTransform="matrix(7.097,0,0,2.497,51.83,57.929)" gradientUnits="userSpaceOnUse"><stop offset="0%" stop-opacity="0.4" style="stop-color:rgb(24,24,24)"/><stop offset="100%" stop-opacity="0" style="stop-color:rgb(24,24,24)"/></radialGradient><rect x="51.83" y="57.929" width="7.097" height="2.497" transform="matrix(1,0,0,1,0,0)" fill="url(#_rgradient_5)"/></g></g></g></g></g><g style="opacity:0.4;"><g style="opacity:0.4;"><g style="opacity:0.4;"><g style="opacity:0.4;"><g opacity="0.4"><radialGradient id="_rgradient_6" fx="1.0013457338124445" fy="0.5" cx="1.0013457338124445" cy="0.5" r="1" gradientTransform="matrix(7.097,0,0,2.497,4.994,57.929)" gradientUnits="userSpaceOnUse"><stop offset="0%" stop-opacity="0.4" style="stop-color:rgb(24,24,24)"/><stop offset="100%" stop-opacity="0" style="stop-color:rgb(24,24,24)"/></radialGradient><rect x="4.994" y="57.929" width="7.096" height="2.497" transform="matrix(1,0,0,1,0,0)" fill="url(#_rgradient_6)"/></g></g></g></g></g><g style="opacity:0.4;"><g style="opacity:0.4;"><g style="opacity:0.4;"><g style="opacity:0.4;"><g opacity="0.4"><linearGradient id="_lgradient_1" x1="0.5377906391545042" y1="1.0040048057669182" x2="0.5377906391545046" y2="1.0040017819617508" gradientTransform="matrix(39.74,0,0,2.497,12.09,57.929)" gradientUnits="userSpaceOnUse"><stop offset="0%" stop-opacity="0" style="stop-color:rgb(24,24,24)"/><stop offset="50%" stop-opacity="0.4" style="stop-color:rgb(24,24,24)"/><stop offset="100%" stop-opacity="0" style="stop-color:rgb(24,24,24)"/></linearGradient><rect x="12.09" y="57.929" width="39.74" height="2.497" transform="matrix(1,0,0,1,0,0)" fill="url(#_lgradient_1)"/></g></g></g></g></g></g><radialGradient id="_rgradient_7" fx="0.4999970551569111" fy="-0.0028741668548094013" cx="0.4999970551569111" cy="-0.0028741668548094013" r="1" gradientTransform="matrix(50.937,0,0,50.936,6.492,7.99)" gradientUnits="userSpaceOnUse"><stop offset="0%" stop-opacity="1" style="stop-color:rgb(140,181,253)"/><stop offset="100%" stop-opacity="1" style="stop-color:rgb(106,96,241)"/></radialGradient><path d=" M 57.429 10.237 C 57.429 8.997 56.422 7.99 55.181 7.99 L 8.739 7.99 C 7.499 7.99 6.492 8.997 6.492 10.237 L 6.492 56.679 C 6.492 57.92 7.499 58.927 8.739 58.927 L 55.181 58.927 C 56.422 58.927 57.429 57.92 57.429 56.679 L 57.429 10.237 L 57.429 10.237 L 57.429 10.237 L 57.429 10.237 Z " fill-rule="evenodd" fill="url(#_rgradient_7)"/></g><path d=" M 39.29 38.194 C 40.314 39.806 40.797 40.663 40.797 41.555 C 40.797 43.319 39.487 44.174 37.722 44.174 C 36.945 44.174 36.442 44.173 35.174 43.513 C 35.174 43.513 34.351 42.761 32.427 42.838 C 30.485 42.761 29.663 43.522 29.663 43.522 C 28.394 44.182 27.91 44.175 27.133 44.175 C 25.369 44.175 24.058 43.321 24.058 41.556 C 24.058 40.664 24.542 39.808 25.566 38.195 C 25.566 38.195 27.5 34.982 29.177 33.47 C 30.389 32.379 32.155 32.383 32.155 32.383 L 32.7 32.383 L 32.7 32.383 C 32.7 32.383 34.544 32.378 35.68 33.47 C 37.305 35.037 39.29 38.195 39.29 38.194 Z  M 28.117 30.234 C 29.961 30.234 31.457 27.904 31.457 25.03 C 31.457 22.155 29.961 19.825 28.117 19.825 C 26.272 19.825 24.777 22.155 24.777 25.03 C 24.777 27.904 26.272 30.234 28.117 30.234 Z  M 24.916 35.275 C 26.275 34.647 26.586 32.422 25.608 30.304 C 24.63 28.186 22.736 26.977 21.376 27.604 C 20.016 28.232 19.707 30.458 20.684 32.576 C 21.662 34.694 23.556 35.902 24.916 35.275 Z  M 35.882 30.234 C 37.727 30.234 39.223 27.904 39.223 25.03 C 39.223 22.155 37.727 19.825 35.882 19.825 C 34.037 19.825 32.542 22.155 32.542 25.03 C 32.542 27.904 34.037 30.234 35.882 30.234 Z  M 42.623 27.604 C 41.263 26.976 39.369 28.185 38.391 30.303 C 37.414 32.422 37.724 34.647 39.084 35.275 C 40.444 35.902 42.338 34.694 43.316 32.576 C 44.294 30.458 43.983 28.232 42.623 27.604 Z " fill="rgb(255,255,255)"/></g></svg>