<?xml version="1.0" encoding="UTF-8" standalone="no"?><!-- Generator: Gravit.io --><svg xmlns="http://www.w3.org/2000/svg" xmlns:xlink="http://www.w3.org/1999/xlink" style="isolation:isolate" viewBox="0 0 64 64" width="64pt" height="64pt"><defs><clipPath id="_clipPath_2uB1zgPRVE5EdZtHqZKhWE4d8IhZWwQE"><rect width="64" height="64"/></clipPath></defs><g clip-path="url(#_clipPath_2uB1zgPRVE5EdZtHqZKhWE4d8IhZWwQE)"><clipPath id="_clipPath_I6nASmwzsB6Hq2GxcquKxGYMOjaIJygp"><rect x="0" y="0" width="64" height="64" transform="matrix(1,0,0,1,0,0)" fill="rgb(255,255,255)"/></clipPath><g clip-path="url(#_clipPath_I6nASmwzsB6Hq2GxcquKxGYMOjaIJygp)"><g><clipPath id="_clipPath_kZABfXS9lYrGbHPg59xLdZOWo7asOsKD"><rect x="0" y="0" width="64" height="64" transform="matrix(1,0,0,1,0,0)" fill="rgb(255,255,255)"/></clipPath><g clip-path="url(#_clipPath_kZABfXS9lYrGbHPg59xLdZOWo7asOsKD)"><g><g><g><radialGradient id="_rgradient_4" fx="0.5000018204656751" fy="0.5000417188151829" cx="0.5000018204656751" cy="0.5000417188151829" r="1" gradientTransform="matrix(54.931,0,0,5.993,4.495,55.931)" gradientUnits="userSpaceOnUse"><stop offset="0%" stop-opacity="0.2" style="stop-color:rgb(0,0,0)"/><stop offset="100%" stop-opacity="0" style="stop-color:rgb(0,0,0)"/></radialGradient><path d=" M 59.426 58.927 C 59.423 60.571 47.026 61.923 31.96 61.923 C 16.895 61.923 4.497 60.571 4.495 58.927 L 4.495 58.927 C 4.495 57.283 16.893 55.931 31.96 55.931 C 47.028 55.931 59.426 57.283 59.426 58.927 L 59.426 58.927 L 59.426 58.927 L 59.426 58.927 Z " fill="url(#_rgradient_4)"/><g style="opacity:0.4;"><g style="opacity:0.4;"><g style="opacity:0.4;"><g style="opacity:0.4;"><g opacity="0.4"><radialGradient id="_rgradient_5" fx="-0.001409145353342467" fy="0.5" cx="-0.001409145353342467" cy="0.5" r="1" gradientTransform="matrix(7.097,0,0,2.497,51.83,57.929)" gradientUnits="userSpaceOnUse"><stop offset="0%" stop-opacity="0.4" style="stop-color:rgb(24,24,24)"/><stop offset="100%" stop-opacity="0" style="stop-color:rgb(24,24,24)"/></radialGradient><rect x="51.83" y="57.929" width="7.097" height="2.497" transform="matrix(1,0,0,1,0,0)" fill="url(#_rgradient_5)"/></g></g></g></g><g style="opacity:0.4;"><g style="opacity:0.4;"><g style="opacity:0.4;"><g opacity="0.4"><radialGradient id="_rgradient_6" fx="1.001345733812444" fy="0.5" cx="1.001345733812444" cy="0.5" r="1" gradientTransform="matrix(7.097,0,0,2.497,4.994,57.929)" gradientUnits="userSpaceOnUse"><stop offset="0%" stop-opacity="0.4" style="stop-color:rgb(24,24,24)"/><stop offset="100%" stop-opacity="0" style="stop-color:rgb(24,24,24)"/></radialGradient><rect x="4.994" y="57.929" width="7.096" height="2.497" transform="matrix(1,0,0,1,0,0)" fill="url(#_rgradient_6)"/></g></g></g></g><g style="opacity:0.4;"><g style="opacity:0.4;"><g style="opacity:0.4;"><g opacity="0.4"><linearGradient id="_lgradient_1" x1="0.5377906391545042" y1="1.0040048057669182" x2="0.5377906391545046" y2="1.0039660545450133" gradientTransform="matrix(39.74,0,0,2.497,12.09,57.929)" gradientUnits="userSpaceOnUse"><stop offset="0%" stop-opacity="0" style="stop-color:rgb(24,24,24)"/><stop offset="50%" stop-opacity="0.4" style="stop-color:rgb(24,24,24)"/><stop offset="100%" stop-opacity="0" style="stop-color:rgb(24,24,24)"/></linearGradient><rect x="12.09" y="57.929" width="39.74" height="2.497" transform="matrix(1,0,0,1,0,0)" fill="url(#_lgradient_1)"/></g></g></g></g></g><radialGradient id="_rgradient_7" fx="0.4999970551569111" fy="-0.0028741668548094013" cx="0.4999970551569111" cy="-0.0028741668548094013" r="1" gradientTransform="matrix(50.937,0,0,50.936,6.492,7.99)" gradientUnits="userSpaceOnUse"><stop offset="0%" stop-opacity="1" style="stop-color:rgb(253,226,140)"/><stop offset="100%" stop-opacity="1" style="stop-color:rgb(241,190,96)"/></radialGradient><path d=" M 57.429 10.237 C 57.429 8.997 56.422 7.99 55.181 7.99 L 8.739 7.99 C 7.499 7.99 6.492 8.997 6.492 10.237 L 6.492 56.679 C 6.492 57.92 7.499 58.927 8.739 58.927 L 55.181 58.927 C 56.422 58.927 57.429 57.92 57.429 56.679 L 57.429 10.237 L 57.429 10.237 L 57.429 10.237 Z " fill-rule="evenodd" fill="url(#_rgradient_7)"/></g></g></g></g><g filter="url(#p5VJTkgSGS3bf8CPSUli3QkLqL5zNUWd)"><path d=" M 23.977 29.444 L 20.568 29.444 C 19.627 29.444 18.864 30.207 18.864 31.148 L 18.864 41.375 C 18.864 42.316 19.627 43.079 20.568 43.079 L 23.977 43.079 C 24.918 43.079 25.682 42.316 25.682 41.375 L 25.682 31.148 C 25.682 30.207 24.918 29.444 23.977 29.444 Z  M 44.798 34.803 C 44.798 34.311 44.64 33.856 44.373 33.485 C 44.841 33.071 45.137 32.467 45.137 31.793 C 45.137 30.546 44.12 29.659 42.88 29.536 C 42.099 29.458 40.268 29.265 40.268 29.265 L 35.908 29.017 L 37.002 25.096 C 37.144 24.371 37.21 23.632 37.171 22.895 C 37.11 21.735 36.821 20.921 35.482 20.921 C 34.651 20.921 34.371 21.46 34.122 22.208 C 33.735 23.372 33.201 24.483 32.661 25.584 L 30.098 28.354 C 29.624 28.867 29.062 29.3 28.418 29.571 C 27.72 29.864 27.386 30.635 27.386 31.539 L 27.386 40.984 C 27.386 42.141 28.324 43.079 29.481 43.079 L 39.314 43.079 C 40.172 43.079 41.029 42.956 41.845 42.691 C 42.208 42.574 42.539 42.435 42.716 42.286 C 43.249 41.933 43.601 41.328 43.601 40.641 C 43.601 40.307 43.518 39.994 43.372 39.718 C 43.939 39.308 44.309 38.641 44.309 37.888 C 44.309 37.409 44.16 36.966 43.906 36.6 C 44.448 36.188 44.798 35.536 44.798 34.803 L 44.798 34.803 Z " fill-rule="evenodd" fill="rgb(255,255,255)"/></g><defs><filter id="p5VJTkgSGS3bf8CPSUli3QkLqL5zNUWd" x="-200%" y="-200%" width="400%" height="400%" filterUnits="objectBoundingBox" color-interpolation-filters="sRGB"><feGaussianBlur xmlns="http://www.w3.org/2000/svg" in="SourceGraphic" stdDeviation="0.8587218125678057"/><feOffset xmlns="http://www.w3.org/2000/svg" dx="2" dy="2" result="pf_100_offsetBlur"/><feFlood xmlns="http://www.w3.org/2000/svg" flood-color="#000000" flood-opacity="0.05"/><feComposite xmlns="http://www.w3.org/2000/svg" in2="pf_100_offsetBlur" operator="in" result="pf_100_dropShadow"/><feBlend xmlns="http://www.w3.org/2000/svg" in="SourceGraphic" in2="pf_100_dropShadow" mode="normal"/></filter></defs></g></g></g></svg>